# xmcd
#
# Track frame offsets: 
#        150
#        16921
#        36608
#        59672
#        77534
#        90740
#        106346
#        124719
#        142423
#        157231
#        177148
#        194695
#
# Disc length: 2869 seconds
#
# Revision: 0
# Processed by: cddbd v1.5.2PL0 Copyright (c) Steve Scherf et al.
# Submitted via: ExactAudioCopy v1.0b1
#
DISCID=af0b330c
DTITLE=Ungu - Melayang
DYEAR=2005
DGENRE=Pop
TTITLE0=Melayang
TTITLE1=Seperti Yang Dulu
TTITLE2=Demi Waktu
TTITLE3=Berikan Aku Cinta
TTITLE4=Berjanjilah
TTITLE5=Dari Satu Hati
TTITLE6=Aku Bukan Pilihan Hatimu
TTITLE7=Tak Perlu
TTITLE8=Ungu (Tak Terulang)
TTITLE9=Tercipta Untukku
TTITLE10=Ciuman Pertama
TTITLE11=Sejauh Mungkin
EXTD=
EXTT0=
EXTT1=
EXTT2=
EXTT3=
EXTT4=
EXTT5=
EXTT6=
EXTT7=
EXTT8=
EXTT9=
EXTT10=
EXTT11=
PLAYORDER=
